# xmcd CD database file
#
# Track frame offsets:
#	150
#	13148
#	22441
#	42690
#	60381
#	77192
#	90299
#	104031
#	130007
#
# Disc length: 1956 seconds
#
# Revision: 0
# Processed by: cddbd v1.4PL0 Copyright (c) Steve Scherf et al.
# Submitted via: CDex 1.40Release
#
DISCID=7707a209
DTITLE=Zach Parrish - Zach Parrish
DYEAR=2002
DGENRE=Blues
TTITLE0=Howlin' Tomcat
TTITLE1=She's Righteous!
TTITLE2=Oh My Michelle
TTITLE3=Heaven On Earth Tonight
TTITLE4=Soul Food
TTITLE5=You Drive Me Crazy
TTITLE6=Guitar Pickin' Woman
TTITLE7=Knockin' Myself Out
TTITLE8=Come Back Ol' Devil
EXTD=YEAR: 2002 ID3G: 0
EXTT0=
EXTT1=
EXTT2=
EXTT3=
EXTT4=
EXTT5=
EXTT6=
EXTT7=
EXTT8=
PLAYORDER=
